<svg width="906" height="367" viewBox="0 0 906 367" fill="none" xmlns="http://www.w3.org/2000/svg">
<path d="M162.75 119.39V70.8701L123.53 47.8301L82.8501 71.0801V23.9102L41.4302 0L0 23.9102V71.7397L40.6299 95.1997L0 118.41V168.9L39.0298 190.59L0 212.89V263.38L39.71 285.44L162.75 213.87V165.34L123.53 142.3" fill="url(#paint0_linear_28_39)"/>
<path d="M231.819 65.5V187.7H255.979V218.27H192.1V65.5H231.83H231.819Z" fill="white"/>
<path d="M348.449 111.74H311.549V100.42C311.549 95.1399 311.079 91.7698 310.129 90.3198C309.189 88.8698 307.609 88.1499 305.409 88.1499C303.019 88.1499 301.209 89.1301 299.979 91.0801C298.749 93.0301 298.139 95.99 298.139 99.96C298.139 105.06 298.829 108.9 300.209 111.48C301.529 114.06 305.269 117.18 311.439 120.82C329.119 131.32 340.259 139.93 344.849 146.66C349.439 153.39 351.739 164.24 351.739 179.21C351.739 190.09 350.469 198.11 347.919 203.27C345.369 208.43 340.449 212.75 333.149 216.24C325.849 219.73 317.359 221.48 307.669 221.48C297.039 221.48 287.959 219.47 280.449 215.44C272.929 211.41 268.009 206.29 265.679 200.06C263.349 193.83 262.189 184.99 262.189 173.54V163.54H299.089V182.13C299.089 187.86 299.609 191.54 300.649 193.17C301.689 194.81 303.529 195.62 306.169 195.62C308.809 195.62 310.779 194.58 312.069 192.51C313.359 190.43 313.999 187.35 313.999 183.26C313.999 174.26 312.769 168.38 310.319 165.61C307.799 162.84 301.609 158.22 291.729 151.74C281.849 145.2 275.309 140.45 272.099 137.49C268.889 134.53 266.229 130.45 264.129 125.22C262.019 120 260.969 113.33 260.969 105.22C260.969 93.5197 262.459 84.9598 265.449 79.5498C268.439 74.1398 273.269 69.9099 279.929 66.8599C286.599 63.8099 294.649 62.2798 304.089 62.2798C314.409 62.2798 323.199 63.9498 330.459 67.2798C337.729 70.6198 342.539 74.8099 344.899 79.8799C347.259 84.9399 348.439 93.5499 348.439 105.69V111.73L348.449 111.74Z" fill="white"/>
<path d="M364.209 65.5H403.839C416.359 65.5 425.839 66.4699 432.289 68.4199C438.739 70.3699 443.939 74.31 447.909 80.25C451.869 86.19 453.849 95.76 453.849 108.96C453.849 117.89 452.449 124.11 449.649 127.63C446.849 131.15 441.329 133.85 433.089 135.74C442.269 137.82 448.499 141.26 451.769 146.08C455.039 150.9 456.679 158.28 456.679 168.22V182.38C456.679 192.7 455.499 200.35 453.139 205.32C450.779 210.29 447.019 213.69 441.859 215.52C436.699 217.35 426.129 218.26 410.149 218.26H364.199V65.4897L364.209 65.5ZM403.939 91.6401V125.61C405.639 125.55 406.959 125.52 407.899 125.52C411.799 125.52 414.279 124.56 415.349 122.64C416.419 120.72 416.949 115.23 416.949 106.17C416.949 101.39 416.509 98.0401 415.629 96.1201C414.749 94.2001 413.599 92.9897 412.189 92.4897C410.769 91.9897 408.019 91.7001 403.929 91.6401H403.939ZM403.939 149.39V192.14C409.539 191.95 413.109 191.07 414.649 189.5C416.189 187.93 416.959 184.06 416.959 177.89V163.64C416.959 157.1 416.269 153.13 414.879 151.75C413.499 150.37 409.849 149.58 403.929 149.39H403.939Z" fill="white"/>
<path d="M240.41 335.53C230.36 335.53 221.73 333.37 214.51 329.06C207.29 324.75 201.76 318.85 197.89 311.38C194.02 303.91 192.09 295.53 192.09 286.26C192.09 276.99 194.02 268.45 197.89 261.04C201.76 253.63 207.29 247.77 214.51 243.45C221.72 239.14 230.36 236.98 240.41 236.98C249.04 236.98 256.77 238.69 263.6 242.1C270.43 245.52 275.81 250.44 279.74 256.88C283.67 263.32 285.63 271.12 285.63 280.26C285.63 281.94 285.53 283.55 285.34 285.09C285.15 286.64 284.92 287.93 284.66 288.96H195.38V283.94H282.73L279.83 286.84C280.09 285.55 280.25 284.2 280.31 282.78C280.37 281.36 280.41 279.95 280.41 278.53C280.41 266.93 276.83 258.02 269.68 251.76C262.53 245.51 252.77 242.39 240.4 242.39C225.71 242.39 214.95 246.35 208.13 254.28C201.3 262.2 197.89 272.67 197.89 285.68V286.65C197.89 299.66 201.27 310.16 208.04 318.15C214.8 326.14 225.59 330.13 240.41 330.13C253.03 330.13 262.54 327.71 268.91 322.88C275.29 318.05 278.48 311.45 278.48 303.07V302.1H284.28V303.07C284.28 309.51 282.31 315.18 278.39 320.08C274.46 324.98 269.18 328.78 262.54 331.48C255.9 334.19 248.53 335.54 240.41 335.54V335.53Z" fill="white"/>
<path d="M303.21 333.6H296.25L342.44 285.87V285.29L296.25 238.91H303.21L346.69 282.01H347.27L390.56 238.91H397.52L351.33 285.1V285.68L397.52 333.61H390.56L347.08 288.97H346.5L303.21 333.61V333.6Z" fill="white"/>
<path d="M419.739 366.45H413.939V238.9H418.77V271.56L419.739 274.07V366.44V366.45ZM461.68 335.53C451.5 335.53 442.549 332.76 434.819 327.22C427.089 321.68 421.939 314.15 419.359 304.61H416.069V288.18H419.739C419.739 296.68 421.539 304.09 425.149 310.4C428.759 316.71 433.719 321.58 440.029 324.99C446.339 328.41 453.559 330.11 461.669 330.11C469.779 330.11 477.03 328.73 483.41 325.96C489.79 323.19 494.78 318.62 498.39 312.24C502 305.86 503.799 297.2 503.799 286.25C503.799 275.3 501.96 266.63 498.29 260.26C494.62 253.88 489.66 249.31 483.41 246.54C477.16 243.77 470.11 242.39 462.25 242.39C449.11 242.39 438.74 246.35 431.14 254.28C423.54 262.2 419.739 272.87 419.739 286.26H416.069V265.97H420.319C422.639 257.73 427.47 250.83 434.81 245.29C442.15 239.75 451.43 236.98 462.64 236.98C472.56 236.98 481.029 239.14 488.049 243.45C495.069 247.77 500.419 253.63 504.089 261.04C507.759 268.45 509.6 276.86 509.6 286.26C509.6 295.66 507.759 303.91 504.089 311.38C500.419 318.85 495.009 324.75 487.859 329.06C480.709 333.38 471.979 335.53 461.669 335.53H461.68Z" fill="white"/>
<path d="M534.729 333.6H528.93V238.91H533.759V265.39L534.729 266.36V333.61V333.6ZM534.729 283.93H532.02V264.99H534.339C535.369 259.97 537.3 255.33 540.14 251.08C542.97 246.83 546.74 243.42 551.45 240.84C556.15 238.26 561.849 236.97 568.549 236.97C576.019 236.97 582.14 238.61 586.91 241.9C591.67 245.19 595.22 249.44 597.54 254.65C599.86 259.87 601.02 265.31 601.02 270.98V276.97H595.219V271.17C595.219 261.64 593.06 254.45 588.75 249.62C584.43 244.79 577.509 242.37 567.979 242.37C556.639 242.37 548.269 246.01 542.859 253.29C537.449 260.57 534.739 270.78 534.739 283.92L534.729 283.93Z" fill="white"/>
<path d="M661.88 335.53C651.83 335.53 643.2 333.37 635.98 329.06C628.76 324.75 623.23 318.85 619.36 311.38C615.49 303.91 613.561 295.53 613.561 286.26C613.561 276.99 615.49 268.45 619.36 261.04C623.23 253.63 628.76 247.77 635.98 243.45C643.19 239.14 651.83 236.98 661.88 236.98C670.51 236.98 678.24 238.69 685.07 242.1C691.9 245.52 697.28 250.44 701.21 256.88C705.14 263.32 707.101 271.12 707.101 280.26C707.101 281.94 707.001 283.55 706.811 285.09C706.621 286.63 706.39 287.93 706.13 288.96H616.851V283.94H704.201L701.3 286.84C701.56 285.55 701.72 284.2 701.78 282.78C701.84 281.36 701.88 279.95 701.88 278.53C701.88 266.93 698.3 258.02 691.15 251.76C684 245.51 674.241 242.39 661.871 242.39C647.181 242.39 636.421 246.35 629.601 254.28C622.771 262.2 619.36 272.67 619.36 285.68V286.65C619.36 299.66 622.74 310.16 629.51 318.15C636.27 326.14 647.06 330.13 661.88 330.13C674.5 330.13 684.01 327.71 690.38 322.88C696.76 318.05 699.951 311.45 699.951 303.07V302.1H705.75V303.07C705.75 309.51 703.78 315.18 699.86 320.08C695.93 324.98 690.65 328.78 684.01 331.48C677.37 334.19 670 335.54 661.88 335.54V335.53Z" fill="white"/>
<path d="M766.82 335.53C753.03 335.53 742.211 332.76 734.351 327.22C726.491 321.68 722.561 313.44 722.561 302.48V302.09H728.36V303.06C728.36 312.85 731.421 319.81 737.541 323.93C743.661 328.05 753.42 330.11 766.82 330.11C779.19 330.11 787.91 328.47 793.01 325.18C798.1 321.89 800.641 316.9 800.641 310.2C800.641 303.89 798.64 299.38 794.65 296.67C790.66 293.96 784.08 291.91 774.94 290.49L750.4 286.62C742.15 285.33 735.49 282.98 730.4 279.57C725.31 276.16 722.771 270.52 722.771 262.66C722.771 257.12 724.51 252.45 727.99 248.65C731.47 244.85 736.2 241.95 742.19 239.95C748.18 237.95 754.91 236.95 762.38 236.95C770.75 236.95 778.161 238.18 784.601 240.62C791.041 243.07 796.101 246.74 799.771 251.64C803.441 256.54 805.28 262.66 805.28 270V270.39H799.48V269.42C799.48 263.5 798.32 258.53 796 254.54C793.68 250.55 789.82 247.52 784.4 245.46C778.99 243.4 771.651 242.37 762.371 242.37C750.771 242.37 742.24 243.95 736.76 247.1C731.28 250.26 728.55 255.38 728.55 262.46C728.55 268.52 730.35 272.87 733.96 275.5C737.57 278.14 743.69 280.17 752.32 281.59L777.061 285.46C785.821 286.75 792.91 289.17 798.32 292.71C803.73 296.25 806.44 301.83 806.44 309.43C806.44 315.36 804.67 320.25 801.13 324.12C797.59 327.99 792.821 330.85 786.831 332.72C780.841 334.59 774.171 335.52 766.831 335.52L766.82 335.53Z" fill="white"/>
<path d="M866.15 335.53C852.36 335.53 841.541 332.76 833.681 327.22C825.821 321.68 821.891 313.44 821.891 302.48V302.09H827.69V303.06C827.69 312.85 830.751 319.81 836.871 323.93C842.991 328.05 852.75 330.11 866.15 330.11C878.52 330.11 887.24 328.47 892.34 325.18C897.43 321.89 899.97 316.9 899.97 310.2C899.97 303.89 897.97 299.38 893.98 296.67C889.99 293.96 883.411 291.91 874.271 290.49L849.73 286.62C841.48 285.33 834.82 282.98 829.73 279.57C824.64 276.16 822.101 270.52 822.101 262.66C822.101 257.12 823.84 252.45 827.32 248.65C830.8 244.85 835.531 241.95 841.521 239.95C847.511 237.95 854.24 236.95 861.71 236.95C870.08 236.95 877.491 238.18 883.931 240.62C890.371 243.07 895.431 246.74 899.101 251.64C902.771 256.54 904.61 262.66 904.61 270V270.39H898.811V269.42C898.811 263.5 897.651 258.53 895.331 254.54C893.011 250.55 889.15 247.52 883.73 245.46C878.32 243.4 870.981 242.37 861.701 242.37C850.101 242.37 841.57 243.95 836.09 247.1C830.61 250.26 827.88 255.38 827.88 262.46C827.88 268.52 829.681 272.87 833.291 275.5C836.901 278.14 843.02 280.17 851.65 281.59L876.391 285.46C885.151 286.75 892.24 289.17 897.65 292.71C903.06 296.25 905.771 301.83 905.771 309.43C905.771 315.36 904 320.25 900.46 324.12C896.92 327.99 892.151 330.85 886.161 332.72C880.171 334.59 873.501 335.52 866.161 335.52L866.15 335.53Z" fill="white"/>
<defs>
<linearGradient id="paint0_linear_28_39" x1="62.25" y1="283.2" x2="100.61" y2="-46.37" gradientUnits="userSpaceOnUse">
<stop stop-color="#98FF13"/>
<stop offset="0.92" stop-color="#3BFF00"/>
</linearGradient>
</defs>
</svg>
